<?xml version="1.0" standalone="no"?>
<!DOCTYPE svg PUBLIC "-//W3C//DTD SVG 1.1//EN" "http://www.w3.org/Graphics/SVG/1.1/DTD/svg11.dtd" >
<svg xmlns="http://www.w3.org/2000/svg">
<metadata>Generated by IcoMoon</metadata>
<defs>
<font id="icon-font" horiz-adv-x="1024">
<font-face units-per-em="1024" ascent="960" descent="-64" />
<missing-glyph horiz-adv-x="1024" />
<glyph unicode="&#x20;" d="" horiz-adv-x="512" />
<glyph unicode="&#xe600;" d="M422.38-57.368c-152.244 33.278-260.723 108.162-344.807 238.024-28.236 43.608-53.36 107.675-68.667 175.098-9.063 39.922-9.898 50.247-8.191 101.366 4.647 139.235 63.483 264.706 171.958 366.711 119.619 112.484 280.757 158.35 442.877 126.059 94.178-18.758 173.163-56.381 231.805-110.417 75.327-69.41 116.158-131.163 147.343-222.844 18.862-55.453 25.507-98.142 25.526-163.982 0.016-60.508-6.081-99.927-24.508-158.425-47.137-149.644-165.292-273.208-315.598-330.043-68.18-25.781-191.287-36.073-257.739-21.548zM506.431 49.408c1.872 2.955 3.431 17.117 3.464 31.47l0.060 26.097-56.463 5.67-14.688-15.746c-18.265-19.581-24.022-42.473-12.815-50.959 9.848-7.458 75.309-4.635 80.443 3.468zM615.174 67.388c2.477 34.137-14.121 45.337-61.743 41.665-26.609-2.052-31.575-3.491-30.146-8.738 0.941-3.455 2.866-14.774 4.278-25.154 3.217-23.647 8.579-26.185 53.046-25.111l33.365 0.806 1.2 16.532zM426.579 98.007l8.868 13.69h-10.107c-14.367 0-25.292 6.842-25.292 15.839 0 7.238-2.898 7.712-47.103 7.712-25.907 0-47.103-0.797-47.103-1.771 0-2.978 51.002-30.491 74.255-40.057 29.743-12.236 35.985-11.62 46.482 4.586zM659.544 97.807c15.956 7.472 34.217 17.098 40.581 21.391l11.57 7.805-11.57 4.646c-6.364 2.555-20.586 5.491-31.605 6.524-17.709 1.66-20.279 0.947-22.132-6.141-1.4-5.355-7.459-9.464-18.236-12.366-9.557-2.574-16.139-6.685-16.139-10.082 0-3.155 1.733-5.737 3.85-5.737 2.118 0 4.959-4.416 6.313-9.813 1.355-5.397 3.789-9.813 5.41-9.813 1.621 0 16.002 6.114 31.958 13.586zM849.49 111.552c6.299 2.59 6.687 3.673 1.963 5.477-46.55 17.781-51.605 18.933-62.768 14.309-11.5-4.763-17.5-13.613-13.555-19.995 2.722-4.404 63.559-4.233 74.361 0.209zM782.584 164.688c15.489 40.046 20.241 48.426 31.713 55.935 17.251 11.291 19.272 11.177 55.215-3.101 16.521-6.563 30.829-11.143 31.794-10.178 2.234 2.234-8.306 21.636-17.389 32.010-16.49 18.834-58.328 48.979-67.977 48.979-9.097 0-11.808-4.008-26.985-39.897-9.28-21.943-20.086-48.88-24.014-59.86-3.928-10.98-10.799-29.256-15.268-40.613-4.469-11.357-8.126-22.127-8.126-23.933 0-4.509 17.052-12.050 20.242-8.951 1.418 1.378 10.776 23.702 20.797 49.608zM616.919 128.386c20.136 4.775 20.737 6.054 14.865 31.62-2.079 9.052-8.396 40.304-14.038 69.449-5.642 29.145-11.889 54.669-13.883 56.72-2.275 2.34-3.626 1.996-3.626-0.926 0-2.56-7.042-9.315-15.648-15.010l-15.648-10.355-21.052 10.3c-11.579 5.665-22.753 10.3-24.833 10.3s-8.969-5.477-15.31-12.171c-16.443-17.359-26.646-20.4-44.046-13.13-7.963 3.327-18.47 9.799-23.348 14.382-4.878 4.583-9.669 7.534-10.646 6.557-0.977-0.977-4.447-24.682-7.712-52.679-3.265-27.997-7.114-60.905-8.553-73.129l-2.616-22.225 21.108-2.343c57.045-6.332 152.924-4.963 184.987 2.641zM525.656 244.309c-13.629 4.686-15.857 21.938-3.674 28.458 6.013 3.218 9.554 3.13 13.738-0.343 11.846-9.831 3.617-32.819-10.064-28.116zM533.507 258.895c0 3.238-2.65 5.888-5.888 5.888s-5.888-2.65-5.888-5.888c0-3.238 2.65-5.888 5.888-5.888 3.238 0 5.888 2.65 5.888 5.888zM731.754 139.198c8.622 9.527 7.125 11.248-18.894 21.707-11.209 4.506-19.923 9.85-19.364 11.876 8.388 30.402 18.659 56.674 22.156 56.674 2.428 0 14.034-3.516 25.79-7.813 11.756-4.297 22.611-6.505 24.122-4.907 5.757 6.091 28.040 64.026 25.575 66.491-3.87 3.87-27.535-8.472-69.22-36.1-33.487-22.195-39.988-25.003-63.747-27.535-26.163-2.788-26.427-2.934-23.825-13.161 1.447-5.688 4.593-20.056 6.991-31.93l4.36-21.589 17.503-0.239c10.973-0.15 24.825-4.109 37.129-10.612 23.892-12.627 22.687-12.517 31.424-2.863zM791.675 146.289c2.355 7.065-5.758 5.58-8.496-1.555-1.467-3.823-0.59-5.617 2.279-4.661 2.565 0.855 5.363 3.652 6.218 6.216zM401.744 159.782c1.015 4.858 2.486 19.872 3.269 33.365l1.424 24.533-74.83-0.128c-82.349-0.141-127.171-4.316-132.244-12.317-5.028-7.931-4.063-36.267 1.478-43.389 7.318-9.406 12.987-9.945 109.833-10.439l89.225-0.455 1.846 8.832zM220.088 165.67c-12.716 10.76-14.641 26.195-4.528 36.309 9.455 9.455 23.894 8.311 36.309-2.877 7.857-7.081 9.162-28.588 2.159-35.591-6.88-6.88-24.589-5.754-33.94 2.159zM246.513 170.215c8.785 5.564 2.144 23.338-9.844 26.347-17.235 4.326-24.842-19.235-8.351-25.863 11.348-4.561 11.74-4.572 18.195-0.484zM748.057 173.224c-2.467 2.467-26.138-3.597-26.138-6.696 0-1.687 6.181-1.17 13.735 1.148 7.554 2.318 13.135 4.815 12.403 5.548zM731.732 178.427c7.851 3.373 7.851 3.373 0 3.589-4.318 0.119-10.5-1.496-13.738-3.589-5.234-3.382-5.234-3.781 0-3.589 3.238 0.119 9.421 1.734 13.738 3.589zM750.132 185.033c-2.834 1.134-6.219 0.994-7.523-0.31s1.014-2.232 5.152-2.062c4.573 0.188 5.503 1.118 2.372 2.371zM741.246 190.877c10.959 2.53 19.926 6.251 19.926 8.27s-2.253 2.806-5.007 1.75c-2.754-1.057-15.119-4.021-27.477-6.586-12.358-2.566-22.469-5.423-22.469-6.349 0-3.007 14.655-1.787 35.028 2.915zM741.219 212.355c0.899 0.769-4.841 1.399-12.757 1.399-7.916 0-14.393-1.722-14.393-3.827 0-3.381 22.735-1.348 27.15 2.428zM304.829 230.983l72.604 4.36-18.281 13.108c-40.503 29.041-73.698 81.564-88.752 140.425-23.463 91.74 9.898 195.833 82.151 256.327l18.92 15.84-5.338 20.577c-2.936 11.317-5.338 38.739-5.338 60.937 0 22.198-1.501 40.36-3.336 40.36-7.103 0-76.197-46.171-98.376-65.738-27.76-24.491-66.724-75.634-82.837-108.73-6.362-13.067-17.182-44.955-24.046-70.862-10.89-41.104-12.499-53.602-12.64-98.132-0.128-40.652 1.625-57.813 8.622-84.393 9.609-36.502 32.68-88.184 51.718-115.856 10.508-15.273 13.503-17.309 22.233-15.118 5.549 1.393 42.762 4.495 82.694 6.893zM630.611 251.048c-5.821 18.966-10.832 17.353-5.942-1.912 2.184-8.605 5.363-14.786 7.065-13.735 1.701 1.051 1.196 8.092-1.122 15.646zM718.468 257.218c21.704 13.111 47.404 27.242 57.11 31.402 21.637 9.275 49.253 9.758 62.477 1.093 12.193-7.989 13.705-6.381 26.379 28.060 15.6 42.393 18.92 58.766 21.843 107.726 7.179 120.228-24.831 205.302-108.337 287.93-40.189 39.766-69.909 60.729-109.584 77.291-27.349 11.417-72.167 24.785-74.678 22.274-0.69-0.69 2.496-16.084 7.079-34.209 6.261-24.759 7.803-39.812 6.202-60.533l-2.131-27.579 26.262-12.564c50.415-24.12 99.137-77.542 118.095-129.489 26.981-73.929 23.937-149.188-8.745-216.217-14.178-29.079-56.485-80.425-73.528-89.238-14.806-7.656-14.765-9.785 0.185-9.785 7.621 0 26.115 8.582 51.37 23.838zM415.749 245.619c0 2.159-1.766 2.834-3.925 1.499s-3.925-4.192-3.925-6.351c0-2.159 1.766-2.834 3.925-1.499 2.159 1.334 3.925 4.192 3.925 6.351zM495.235 270.247c11.322 8.595 8.139 10.241-19.626 10.15l-26.496-0.087 9.813-7.676c11.35-8.878 26.45-9.87 36.309-2.386zM581.591 282.022c9.964 7.564 8.436 10.718-3.925 8.103-5.937-1.256-15.118-3.177-20.403-4.27-7.596-1.57-8.418-2.739-3.925-5.582 8.058-5.098 20.226-4.345 28.253 1.749zM581.822 301.723c41.396 10.234 75.32 38.348 95.471 79.12 17.205 34.812 20.022 57.258 11.671 92.995-14.17 60.639-52.9 112.309-103.369 137.908l-12.679 6.431 7.566 20.547c14.987 40.702 21.036 83.12 16.348 114.639-4.839 32.537-25.193 92.015-35.986 105.157-9.451 11.508-17.13 6.931-31.697-18.892-25.911-45.933-28.995-94.791-13.021-206.272l2.589-18.065-18.595-4.682c-10.227-2.575-19.522-3.756-20.654-2.624-2.275 2.275-5.943 23.302-14.552 83.428-8.831 61.677-27.425 100.517-66.098 138.073l-17.639 17.129-5.076-9.279c-7.013-12.821-9.923-126.823-3.853-150.93 2.497-9.915 13.35-37.556 24.119-61.424 16.645-36.892 18.83-44.42 14.574-50.224-2.753-3.755-13.458-18.381-23.789-32.503-67.161-91.809-46.264-224.377 38.76-245.889 20.888-5.285 127.709-1.614 155.909 5.357zM507.384 330.84c8.054 8.9 8.228 12.448 0.608 12.448-3.238 0-5.888 1.997-5.888 4.439 0 2.911 4.904 3.643 14.25 2.126 9.203-1.493 18.369-0.183 25.879 3.701 6.396 3.307 12.79 4.758 14.208 3.224 1.419-1.534 0.371-3.578-2.327-4.542-7.638-2.728-5.788-7.803 3.754-10.298 13.311-3.481 4.672-8.281-12.652-7.030-9.323 0.673-18.927-1.333-24.258-5.066-4.853-3.399-11.355-6.181-14.447-6.181-4.562 0-4.397 1.354 0.873 7.178zM409.461 403.756c-3.329 8.675-0.060 31.020 4.769 32.603 7.389 2.421 14.67-20.362 9.56-29.91-5.071-9.476-11.278-10.642-14.329-2.692zM612.306 437.312c-6.684 4.131-7.326 26.122-0.949 32.5 6.711 6.711 13.738-1.788 13.738-16.617 0-14.336-5.082-20.647-12.79-15.883zM489.348 706.886c7.812 2.094 8.847 4.919 8.96 24.479 0.132 22.69 5.427 66.86 9.733 81.185 2.365 7.869 1.625 7.97-34.143 4.639-40.234-3.746-47.022-6.894-37.736-17.497 8.793-10.041 20.822-39.208 26.402-64.016 7.852-34.912 7.072-34.073 26.784-28.79z" horiz-adv-x="1020" />
<glyph unicode="&#xe601;" d="M409.534-63.664c-7.991 3.441-22.115 32.76-31.447 65.13l-150.568 523.542c-9.293 32.39-42.354 69.505-73.452 82.492l-67.969 28.424c-31.107 12.987-49.062-2.926-39.943-35.384l107.329-381.839c9.118-32.449 10.489-56.537 3.091-53.572-7.456 2.975-20.949 31.933-30.028 64.401l-124.185 444.18c-9.070 32.449 8.788 69.942 39.691 83.367l423.027 183.405c30.903 13.425 62.302 21.911 69.719 18.917 7.417-3.023-11.655-16.769-42.393-30.592l-374.529-168.484c-30.738-13.804-29.872-15.962 1.905-4.783l433.487 152.668c13.298 4.705 15.447 1.332 1.925-4.783l-377.902-170.097c-30.718-13.843-29.756-16.234 2.139-5.395l445.764 151.734c13.357 4.54 15.048 1.808 1.429-3.849l-397.286-165.674c-31.097-12.987-30.135-15.758 2.177-6.231l481.741 142.227c11.199 3.305 12.433 0.855 1.060-3.188l-435.207-154.777c-31.739-11.296-31.097-13.269 1.4-4.404l499.871 136.327c32.487 8.885 73.228 10.401 90.473 3.431 17.284-6.95 31.671-40.254 31.992-73.928l1.468-144.969c0.369-33.693-5.434-54.583-12.861-46.418-7.456 8.204-15.835 42.325-18.655 75.93l-8.632 102.138c-2.829 33.596-31.574 53.242-63.925 43.696l-503.886-148.993c-32.312-9.546-51.502-43.948-42.617-76.475l154.194-565.332c8.827-32.526 9.575-56.314 1.604-52.843z" horiz-adv-x="904" />
<glyph unicode="&#xe602;" d="M549.091 960l-24.658-61.097c-262.653-11.086-472.401-227.021-474.127-491.591l-50.306-93.522 45.51 15.326 43.477-125.999c-4.103-16.6-6.308-33.95-6.308-51.818 0-118.918 96.444-215.299 215.351-215.299 101.462 0 186.519 70.161 209.304 164.628h94.565c22.784-94.467 107.844-164.628 209.304-164.628 118.918 0 215.351 96.381 215.351 215.299 0 19.572-2.613 38.539-7.507 56.562l38.368 125.635 45.51-15.326-61.983 90.603c-2.26 239.804-175.385 439.399-403.699 482.155l19.914 69.073-62.817-63.026c-1.146 0.112-2.292 0.209-3.44 0.313l-41.809 62.713zM722.321 580.698l21.321-17.881 193.248-117.085h4.066l10.895-8.341h-0.209l51.505-33.364h15.014l-34.354-123.966c-39.262 52.536-101.97 86.589-172.604 86.589-114.7 0-208.384-89.717-214.882-202.788h-83.357c-6.497 113.071-100.232 202.788-214.934 202.788-74.167 0-139.614-37.539-178.338-94.617l-46.97 131.995h431.693l200.598 157.33 17.307 19.34zM298.030 343.765c105.591 0 191.215-85.623 191.215-191.215 0-105.591-85.623-191.163-191.215-191.163-105.589 0-191.215 85.571-191.215 191.163 0 105.591 85.625 191.215 191.215 191.215zM811.255 343.765c105.593 0 191.163-85.623 191.163-191.215 0-105.591-85.569-191.163-191.163-191.163-105.593 0-191.215 85.571-191.215 191.163 0 105.591 85.621 191.215 191.215 191.215zM804.218 219.277c-37.88 0-68.604-30.722-68.604-68.604s30.724-68.604 68.604-68.604c37.886 0 68.604 30.722 68.604 68.604 0 37.882-30.717 68.604-68.604 68.604zM295.476 204.003c-37.884 0-68.604-30.726-68.604-68.604 0-37.888 30.719-68.552 68.604-68.552 37.886 0 68.604 30.663 68.604 68.552 0 37.878-30.717 68.604-68.604 68.604zM513.173 143.010h82.94c0.249-6.551 0.742-13.056 1.564-19.445h-86.12c0.822 6.388 1.367 12.894 1.616 19.445z" horiz-adv-x="1103" />
<glyph unicode="&#xe603;" d="M960 64h-64v-64q0-27-19-45.5t-45.5-18.5-45 18.5-18.5 45.5v64h-64q-27 0-45.5 19t-18.5 45.5 18.5 45 45.5 18.5h64v64q0 27 18.5 45.5t45 18.5 45.5-18.5 19-45.5v-64h64q26 0 45-18.5t19-45-19-45.5-45-19zM710 320q-32-26-70-42v-28q-28-10-46-34.5t-18-55.5v-64q0-40 28-68t68-28h32v-62q-70-2-192-2h-76t-81 1-87 2.5-80 4.5-75.5 8.5-57.5 12-41.5 16.5-13.5 22q2 88 110 155.5t274 89.5v33q-52 23-90 65t-60 98.5-32 121-10 138.5q0 65 25 114.5t69 80 101 46 125 15.5 125-15.5 101-46 69-80 25-114.5q0-220-75-330-34-18-47-54z" />
<glyph unicode="&#xe604;" d="M800-64q-93 0-158.5 65.5t-65.5 158.5 65.5 158.5 158.5 65.5 158.5-65.5 65.5-158.5-65.5-158.5-158.5-65.5zM960 160q0 50-29 91l-222-222q41-29 91-29 66 0 113 47t47 113zM640 160q0-50 29-91l222 222q-41 29-91 29-66 0-113-47t-47-113zM512 160q0-66 28.5-124.5t78.5-99.5h-183t-81 1-87 2.5-80 4.5-75.5 8.5-57.5 12-41.5 16.5-13.5 22q2 88 110 155.5t274 89.5v33q-52 23-90 65t-60 98.5-32 121-10 138.5q0 65 25 114.5t69 80 101 46 125 15.5 125-15.5 101-46 69-80 25-114.5q0-156-37-256-118-2-200.5-86t-82.5-202z" />
<glyph unicode="&#xe605;" d="M512-64q-104 0-199 40.5t-163.5 109-109 163.5-40.5 199 40.5 199 109 163.5 163.5 109 199 40.5 199-40.5 163.5-109 109-163.5 40.5-199-40.5-199-109-163.5-163.5-109-199-40.5zM512 832q-104 0-192.5-51.5t-140-140-51.5-192.5 51.5-192.5 140-140 192.5-51.5 192.5 51.5 140 140 51.5 192.5-51.5 192.5-140 140-192.5 51.5zM544 128h-64q-13 0-22.5 9.5t-9.5 22.5v64q0 13 9.5 22.5t22.5 9.5h64q13 0 22.5-9.5t9.5-22.5v-64q0-13-9.5-22.5t-22.5-9.5zM544 320h-64q-13 0-22.5 9.5t-9.5 22.5v384q0 13 9.5 22.5t22.5 9.5h64q13 0 22.5-9.5t9.5-22.5v-384q0-13-9.5-22.5t-22.5-9.5z" />
<glyph unicode="&#xe606;" d="M512-64q-104 0-199 40.5t-163.5 109-109 163.5-40.5 199 40.5 199 109 163.5 163.5 109 199 40.5 199-40.5 163.5-109 109-163.5 40.5-199-40.5-199-109-163.5-163.5-109-199-40.5zM512 768q-87 0-160.5-43t-116.5-116.5-43-160.5 43-160.5 116.5-116.5 160.5-43 160.5 43 116.5 116.5 43 160.5-43 160.5-116.5 116.5-160.5 43z" />
<glyph unicode="&#xe607;" d="M512-64q-139 0-257 68.5t-186.5 186.5-68.5 257q0 104 39.5 197.5t110.5 164.5l45-45q62 62 144 96.5t173 34.5v64q104 0 199-40.5t163.5-109 109-163.5 40.5-199-40.5-199-109-163.5-163.5-109-199-40.5zM240 720l46-46q-45-44-69.5-102.5t-24.5-123.5q0-87 43-160.5t116.5-116.5 160.5-43 160.5 43 116.5 116.5 43 160.5-43 160.5-116.5 116.5-160.5 43v64q-78 0-148-29.5t-124-82.5z" />
<glyph unicode="&#xe608;" d="M512-64q-104 0-199 40.5t-163.5 109-109 163.5-40.5 199h64q0 91 35.5 174t95.5 143 143 95.5 174 35.5v64q104 0 199-40.5t163.5-109 109-163.5 40.5-199-40.5-199-109-163.5-163.5-109-199-40.5zM128 448h64q0-87 43-160.5t116.5-116.5 160.5-43 160.5 43 116.5 116.5 43 160.5-43 160.5-116.5 116.5-160.5 43v64q-104 0-192.5-51.5t-140-140-51.5-192.5z" />
<glyph unicode="&#xe609;" d="M512-64q-104 0-197.5 39.5t-164.5 110.5l45 45q-62 62-96.5 144t-34.5 173 35.5 174 95.5 143 143 95.5 174 35.5v64q104 0 199-40.5t163.5-109 109-163.5 40.5-199-40.5-199-109-163.5-163.5-109-199-40.5zM128 448q0-78 29.5-148t82.5-124l46 46q44-45 102.5-69.5t123.5-24.5q87 0 160.5 43t116.5 116.5 43 160.5-43 160.5-116.5 116.5-160.5 43v64q-104 0-192.5-51.5t-140-140-51.5-192.5z" />
<glyph unicode="&#xe60a;" d="M512-64v64q-91 0-174 35.5t-143 95.5-95.5 143-35.5 174 35.5 174 95.5 143 143 95.5 174 35.5v64q104 0 199-40.5t163.5-109 109-163.5 40.5-199-40.5-199-109-163.5-163.5-109-199-40.5zM128 448q0-104 51.5-192.5t140-140 192.5-51.5v64q87 0 160.5 43t116.5 116.5 43 160.5-43 160.5-116.5 116.5-160.5 43v64q-104 0-192.5-51.5t-140-140-51.5-192.5z" />
<glyph unicode="&#xe60b;" d="M874 86l-45 45q-62-62-144-96.5t-173-34.5-174 35.5-143 95.5-95.5 143-35.5 174 35.5 174 95.5 143 143 95.5 174 35.5v64q104 0 199-40.5t163.5-109 109-163.5 40.5-199-39.5-197.5-110.5-164.5zM128 448q0-104 51.5-192.5t140-140 192.5-51.5q78 0 148 29.5t124 82.5l-46 46q45 44 69.5 102.5t24.5 123.5q0 87-43 160.5t-116.5 116.5-160.5 43v64q-104 0-192.5-51.5t-140-140-51.5-192.5z" />
<glyph unicode="&#xe60c;" d="M960 448q0-91-35.5-174t-95.5-143-143-95.5-174-35.5-174 35.5-143 95.5-95.5 143-35.5 174 35.5 174 95.5 143 143 95.5 174 35.5v64q104 0 199-40.5t163.5-109 109-163.5 40.5-199h-64zM128 448q0-104 51.5-192.5t140-140 192.5-51.5 192.5 51.5 140 140 51.5 192.5h-64q0 87-43 160.5t-116.5 116.5-160.5 43v64q-104 0-192.5-51.5t-140-140-51.5-192.5z" />
<glyph unicode="&#xe60d;" d="M960 448q0-91-35.5-174t-95.5-143-143-95.5-174-35.5-174 35.5-143 95.5-95.5 143-35.5 174 35.5 174 95.5 143 143 95.5 174 35.5v64q104 0 197.5-39.5t164.5-110.5l-45-45q62-62 96.5-144t34.5-173zM128 448q0-104 51.5-192.5t140-140 192.5-51.5 192.5 51.5 140 140 51.5 192.5q0 78-29.5 148t-82.5 124l-46-46q-44 45-102.5 69.5t-123.5 24.5v64q-104 0-192.5-51.5t-140-140-51.5-192.5z" />
<glyph unicode="&#xe60e;" d="M512 0q122 0 225 60t163 163 60 225-60 225-163 163-225 60-225-60-163-163-60-225 60-225 163-163 225-60zM512 832q104 0 192.5-51.5t140-140 51.5-192.5-51.5-192.5-140-140-192.5-51.5-192.5 51.5-140 140-51.5 192.5 51.5 192.5 140 140 192.5 51.5z" />
<glyph unicode="&#xe60f;" d="M960 64h-256q-27 0-45.5 19t-18.5 45.5 18.5 45 45.5 18.5h256q27 0 45.5-18.5t18.5-45-18.5-45.5-45.5-19zM710 320q-32-26-70-42v-28q-28-10-46-34.5t-18-55.5v-64q0-40 28-68t68-28h32v-62q-70-2-192-2h-76t-81 1-87 2.5-80 4.5-75.5 8.5-57.5 12-41.5 16.5-13.5 22q2 88 110 155.5t274 89.5v33q-52 23-90 65t-60 98.5-32 121-10 138.5q0 65 25 114.5t69 80 101 46 125 15.5 125-15.5 101-46 69-80 25-114.5q0-220-75-330-34-18-47-54z" />
<glyph unicode="&#xe610;" d="M995.828-35.826c-37.566-37.564-98.45-37.564-136.016 0l-169.726 169.726c-69.776-44.764-152.26-71.434-241.318-71.434-247.83 0-448.768 200.908-448.768 448.768s200.938 448.766 448.768 448.766c247.862 0 448.768-200.904 448.768-448.766 0-89.028-26.704-171.542-71.436-241.352l169.728-169.726c37.562-37.564 37.562-98.418 0-135.982zM448.768 831.782c-177.022 0-320.548-143.494-320.548-320.546s143.526-320.548 320.548-320.548c177.052 0 320.548 143.496 320.548 320.548s-143.496 320.546-320.548 320.546z" />
<glyph unicode="&#xe618;" d="M1015 352q-23 118-94 212.5t-178.5 149-230.5 54.5q-40 0-68 28t-28 68 28 68 68 28q104 0 199-40.5t163.5-109 109-163.5 40.5-199q0-47-9-96zM789 288q20 34 58.5 44.5t73-9.5 44.5-58.5-10-72.5q-52-90-134.5-152t-176-87-196-12.5-192.5 64.5q-41 23-78 56 84-31 173.5-28.5t170.5 31 151 86.5 116 138zM235 288q20-34 9.5-72.5t-45-58.5-72.5-9.5-58 44.5q-52 90-64.5 192.5t12.5 196 87 176 152 134.5q41 24 88 40-91-78-137.5-187t-39.5-229.5 68-226.5z" />
<glyph unicode="&#xe619;" d="M955 192q-20-34-58-44.5t-72.5 9.5-45 58.5 9.5 72.5q61 106 68 226.5t-39.5 229.5-137.5 187q47-16 88-40 90-52 152-134.5t87-176 12.5-196-64.5-192.5zM768 5q-90-52-192.5-64.5t-196 12.5-176 87-134.5 152q-20 34-10 72.5t44.5 58.5 73 9.5 58.5-44.5q46-80 116-138t151-86.5 170.5-31 173.5 28.5q-37-33-78-56zM512 768q-123 0-230.5-54.5t-178.5-149-94-212.5q-9 49-9 96 0 104 40.5 199t109 163.5 163.5 109 199 40.5q40 0 68-28t28-68-28-68-68-28z" />
<glyph unicode="&#xe61a;" d="M958 652q66-88 66-204 0-162-74.5-264.5t-205.5-148.5q-25-52-80-75.5t-152-23.5-152 23.5-80 75.5q-131 46-205.5 148.5t-74.5 264.5q0 116 66 204-33 24-50 52-32 57-1 113.5t107 99.5q50 29 94.5 38.5t83.5-3 61-50.5q20-34 22-80 64 10 129 10t129-10q2 46 22 80 22 38 61 51t83.5 3 94.5-39q76-43 107.5-99.5t-1.5-113.5q-17-29-50-52zM512.5 768q-125.5 0-226-37t-161.5-111.5-61-176.5q0-237 196-329-4 28-4 78 16-84 88-138t168-54 168 54 88 138q0-49-3-78 195 92 195 329 0 102-61 176.5t-161 111.5-225.5 37zM736 256q-45 0-83 38t-57.5 89-19.5 97q0 66 37.5 113t90.5 47q34 0 80-45.5t79-106.5 33-104q0-42-26-72t-61-43-73-13zM704.5 512q-26.5 0-45.5-18.5t-19-45.5 19-45.5 45.5-18.5 45 18.5 18.5 45-18.5 45.5-45 19zM640 224q0-15-51.5-55.5t-76.5-40.5-76.5 41-51.5 55q0 20 34 26t94 6 94-6 34-26zM288 256q-38 0-73 13t-61 43-26 72q0 43 33 104t79 106.5 80 45.5q53 0 90.5-47t37.5-113q0-46-19.5-97t-57.5-89-83-38zM320.5 512q-26.5 0-45.5-18.5t-19-45.5 19-45.5 45.5-18.5 45 18.5 18.5 45-18.5 45.5-45 19z" />
<glyph unicode="&#xe61b;" d="M896-64h-448q-53 0-90.5 37.5t-37.5 90.5v64q0 27 19 45.5t45.5 18.5 45-18.5 18.5-45 19-45.5 45-19h256q27 0 45.5 19t18.5 45v640q0 27-18.5 45.5t-45.5 18.5h-256q-26 0-45-18.5t-19-45-18.5-45.5-45-19-45.5 19-19 45v64q0 53 37.5 90.5t90.5 37.5h448q53 0 90.5-37.5t37.5-90.5v-768q0-53-37.5-90.5t-90.5-37.5zM512 676q0 12 13.5 20t32 7.5 29.5-12.5l163-199q17-19 17-44t-17-43l-163-200q-11-12-29.5-12.5t-32 7.5-13.5 19v101h-448q-27 0-45.5 18.5t-18.5 45.5v128q0 27 18.5 45.5t45.5 18.5h448v100z" />
<glyph unicode="&#xe61c;" d="M896-64h-448q-53 0-90.5 37.5t-37.5 90.5v64q0 27 18.5 45.5t45 18.5 45.5-18.5 19-45 18.5-45.5 45.5-19h256q26 0 45 19t19 45v641q0 26-19 45t-45 19h-256q-27 0-45.5-19t-18.5-45.5-19-45.5-45.5-19-45 19-18.5 46v64q0 53 37.5 90.5t90.5 37.5h448q53 0 90.5-37.5t37.5-90.5v-769q0-53-37.5-90.5t-90.5-37.5zM704 577q26 0 45-19t19-45v-129q0-26-19-45t-45-19h-448v-101q0-11-13.5-19t-32-7-29.5 12l-163 200q-18 18-18 43.5t18 43.5l163 200q11 11 29.5 11.5t32-7.5 13.5-20v-99h448z" />
<glyph unicode="&#xe61e;" d="M1024 3q0-12-13.5-22t-41.5-16.5-57.5-12-75.5-8.5-80-4.5-87.5-2.5-81-1h-151t-81 1-87.5 2.5-80 4.5-75.5 8.5-57.5 12-41.5 16.5-13.5 22q2 88 110 155.5t274 89.5v33q-52 23-90 65t-59.5 98.5-32 121-10.5 138.5q0 65 25 115t69 80.5 101 46 125 15.5 125-15.5 101-46 69-80.5 25-115q0-349-192-426v-30q166-22 274-89.5t110-155.5zM768 687q0 104-71.5 157t-184.5 53-184.5-53-71.5-157q0-68 10-125t32-106.5 60-82.5 90-46v-138q-60-5-117-20.5t-98-34-73-38-48-34.5-16-22q0-14 38-23t114-12 127-4 137-1 137 1 127 4 114 12 38 23q0 7-16 22t-48 34.5-72.5 38-98 34-117.5 20.5v138q192 41 192 360z" />
<glyph unicode="&#xe61f;" d="M1024 160q0-93-65.5-158.5t-158.5-65.5h-364t-81 1-87 2.5-80 4.5-75.5 8.5-57.5 12-41.5 16.5-13.5 22q2 88 110 155.5t274 89.5v33q-52 23-90 65t-60 98.5-32 121-10 138.5q0 65 25 114.5t69 80 101 46 125 15.5 125-15.5 101-46 69-80 25-114.5q0-214-71-324 23 4 39 4 93 0 158.5-65.5t65.5-158.5zM768 687q0 103-71.5 156t-184.5 53-184.5-53-71.5-156q0-68 10-125.5t32-106.5 60-82 90-46v-138q-60-6-117.5-21t-98.5-33.5-72.5-38-47.5-34.5-16-22q0-14 38-23t114-12 126.5-4 137.5-1q85 0 131 1-67 66-67 159 0 6 3 28-1 1-2 1h-1v138q192 41 192 360zM768 288v-96h-96q-13 0-22.5-9.5t-9.5-22.5 9.5-22.5 22.5-9.5h96v-96q0-13 9.5-22.5t22.5-9.5 22.5 9.5 9.5 22.5v96h96q13 0 22.5 9.5t9.5 22.5-9.5 22.5-22.5 9.5h-96v96q0 13-9.5 22.5t-22.5 9.5-22.5-9.5-9.5-22.5z" />
<glyph unicode="&#xe620;" d="M1024 160q0-93-65.5-158.5t-158.5-65.5h-364t-81 1-87 2.5-80 4.5-75.5 8.5-57.5 12-41.5 16.5-13.5 22q2 88 110 155.5t274 89.5v33q-52 23-90 65t-60 98.5-32 121-10 138.5q0 65 25 114.5t69 80 101 46 125 15.5 125-15.5 101-46 69-80 25-114.5q0-214-71-324 23 4 39 4 93 0 158.5-65.5t65.5-158.5zM768 687q0 103-71.5 156t-184.5 53-184.5-53-71.5-156q0-68 10-125.5t32-106.5 60-82 90-46v-138q-60-6-117.5-21t-98.5-33.5-72.5-38-47.5-34.5-16-22q0-14 38-23t114-12 126.5-4 137.5-1q85 0 131 1-67 66-67 159 0 6 3 29h-3v138q192 41 192 360zM672 192q-13 0-22.5-9.5t-9.5-22.5 9.5-22.5 22.5-9.5h256q13 0 22.5 9.5t9.5 22.5-9.5 22.5-22.5 9.5h-256z" />
<glyph unicode="&#xe621;" d="M1024 160q0-93-65.5-158.5t-158.5-65.5h-364t-81 1-87 2.5-80 4.5-75.5 8.5-57.5 12-41.5 16.5-13.5 22q2 88 110 155.5t274 89.5v33q-52 23-90 65t-60 98.5-32 121-10 138.5q0 65 25 114.5t69 80 101 46 125 15.5 125-15.5 101-46 69-80 25-114.5q0-214-71-324 23 4 39 4 93 0 158.5-65.5t65.5-158.5zM960 160q0 50-29 91l-222-222q41-29 91-29 66 0 113 47t47 113zM768 687q0 103-71.5 156t-184.5 53-184.5-53-71.5-156q0-68 10-125t32-106.5 60-82.5 90-46v-138q-60-6-117.5-21t-98.5-33.5-72.5-38-47.5-34.5-16-22q0-14 38-23t114-12 126.5-4 137.5-1q85 0 131 1-67 66-67 159 0 6 3 28-1 1-2 1h-1v138q192 41 192 360zM640 160q0-50 29-91l222 222q-41 29-91 29-66 0-113-47t-47-113z" />
<glyph unicode="&#xe622;" d="M930 445q0-72-25-141l76-67q-21-49-54-93l-95 34q-47-56-110-93l16-100q-49-24-101-37l-52 87q-38-6-72-6t-72 6l-52-87q-52 13-101 37l16 100q-63 37-110 93l-95-34q-33 44-54 93l77 67q-26 69-26 141l-94 35q4 55 18 107l102 2q26 69 72 124l-50 88q39 40 82 69l80-64q63 36 134 49l19 100q28 3 54.5 3t53.5-3l19-100q72-13 134-49l80 64q43-29 82-69l-50-88q46-55 72-124l102-2q14-51 18-107zM513 573q-53 0-90.5-37.5t-37.5-90.5 37.5-90.5 90.5-37.5 90.5 37.5 37.5 90.5-37.5 90.5-90.5 37.5z" />
<glyph unicode="&#xe623;" d="M736 896h-32v-768q0-80-56-136t-136-56-136 56-56 136v768h-32q-13 0-22.5 9.5t-9.5 22.5 9.5 22.5 22.5 9.5h448q13 0 22.5-9.5t9.5-22.5-9.5-22.5-22.5-9.5zM544 128q13 0 22.5 9.5t9.5 22.5-9.5 22.5-22.5 9.5-22.5-9.5-9.5-22.5 9.5-22.5 22.5-9.5zM447.5 256q26.5 0 45.5 19t19 45.5-19 45-45.5 18.5-45-18.5-18.5-45 18.5-45.5 45-19zM640 896h-256v-320h256v320zM608 448q-13 0-22.5-9.5t-9.5-22.5 9.5-22.5 22.5-9.5 22.5 9.5 9.5 22.5-9.5 22.5-22.5 9.5z" />
<glyph unicode="&#xe625;" d="M1024 224q0-119-84.5-203.5t-203.5-84.5q-71 0-132 32t-101 88q-95-47-172-55t-111 27q-40 39-23.5 134.5t82.5 205.5q62-48 137-48 93 0 158.5 65.5t65.5 158.5q0 75-48 137 110 66 205.5 82.5t134.5-23.5q35-34 27-111t-55-172q56-40 88-101t32-132zM837 347q-46-66-102-122t-122-102q49-59 123-59 66 0 113 47t47 113q0 74-59 123zM416 384q-30 0-53.5 10t-36 22-31 22-39.5 10q-106 0-181 75t-75 181 75 181 181 75 181-75 75-181q0-21 10-39.5t22-31 22-36 10-53.5q0-66-47-113t-113-47z" />
<glyph unicode="&#xe62b;" d="M892 509q5-31 5-61t-5-61l129-124q5-5 3.5-15.5t-8.5-21.5l-69-107q-7-11-17-17.5t-16-5.5l-165 49q-46-35-98-55l-39-138q-2-6-13-11t-25-5h-137q-14 0-24.5 5t-12.5 11l-36 142q-44 19-87 52l-164-50q-7-1-17 5.5t-17 17.5l-69 107q-7 11-8.5 21.5t3.5 15.5l129 124q-5 31-5 61t5 61l-129 124q-5 5-3.5 15.5t8.5 21.5l69 107q7 11 17 17.5t17 5.5l164-50q45 36 98 56l39 138q2 6 13 11t25 5h137q14 0 25-5t12-11l36-142q45-19 87-52l165 50q7 1 16.5-5.5t16.5-17.5l69-107q7-11 8.5-21.5t-3.5-15.5zM513 640q-80 0-136-56.5t-56-136 56-135.5 136-56 136 56 56 135.5-56 136-136 56.5z" />
<glyph unicode="&#xe62d;" d="M960-64h-64q-27 0-45.5 19t-18.5 45v896q0 26 18.5 45t45.5 19h64q26 0 45-19t19-45v-896q0-26-19-45t-45-19zM704-64h-64q-27 0-45.5 19t-18.5 45v640q0 26 18.5 45t45.5 19h64q26 0 45-19t19-45v-640q0-26-19-45t-45-19zM448-64h-64q-27 0-45.5 19t-18.5 45v384q0 27 18.5 45.5t45.5 18.5h64q26 0 45-18.5t19-45.5v-384q0-26-19-45t-45-19zM192 192q26 0 45-19t19-45.5-19-45-45-18.5h-64v-64q0-26-19-45t-45.5-19-45 19-18.5 45v896q0 26 18.5 45t45.5 19h128q26 0 45-19t19-45.5-19-45-45-18.5h-64v-128h64q26 0 45-19t19-45.5-19-45-45-18.5h-64v-128h64q26 0 45-18.5t19-45-19-45.5-45-19h-64v-128h64z" />
<glyph unicode="&#xe631;" d="M963 512q26 0 45-19t19-45.5-18.5-45-45.5-18.5h-67q-5-53-19-106l101-26q37-10 46-45 6-14 0-32-2-10-9-19-50-156-52-156-24 0-44 19t-20 45v77l-68 18q-53-103-136-163t-180-60-180 60-136 163l-68-18v-77q0-26-20-45t-44-19q-2 0-52 156-7 9-9 19-6 18 0 32 10 35 46 45l101 26q-14 53-19 106h-67q-26 0-45 18.5t-19 45 19 45.5 45 19h67q5 53 19 106l-101 26q-37 9-46 45-6 14 0 32 2 10 9 19 50 156 52 156 24 0 44-19t20-45v-78l68-17q53 103 136 163t180 60 180-60 136-163l68 17v78q0 26 20 45t44 19q1 0 52-156 7-9 9-19 6-18 0-32-10-36-46-45l-101-26q14-54 19-106h67zM643.5 64q26.5 0 45 18.5t18.5 45-18.5 45.5-45 19-45.5-19-19-45.5 19-45 45.5-18.5zM387.5 64q26.5 0 45 18.5t18.5 45-18.5 45.5-45 19-45.5-19-19-45.5 19-45 45.5-18.5zM323.5 320q26.5 0 45 18.5t18.5 45-18.5 45.5-45 19-45.5-19-19-45.5 19-45 45.5-18.5zM515 832q-62 0-122-45t-97-112.5-37-130.5q10-5 21-9.5t20.5-7.5 24.5-5.5 23.5-4 27-2.5 26-2 28.5-1h85q65 0 97.5 1t79 8.5 79.5 22.5q0 63-36.5 130.5t-97 112.5-122.5 45zM707.5 448q-26.5 0-45.5-19t-19-45.5 19-45 45.5-18.5 45 18.5 18.5 45-18.5 45.5-45 19z" />
<glyph unicode="&#xe632;" d="M960 384h-70q-14-87-65-158l52-52q19-18 19-45t-19-46-46-19-46 19l-51 52q-72-51-158-65v-70q0-27-19-45.5t-45.5-18.5-45 18.5-18.5 45.5v70q-87 14-158 65l-53-52q-18-19-45-19t-46 19-19 46 19 45l52 53q-50 71-64 157h-70q-27 0-45.5 18.5t-18.5 45 18.5 45.5 45.5 19h70q14 86 65 158l-53 52q-19 19-19 46t19 46 46 19 45-19l53-53q72 51 158 65v70q0 26 18.5 45t45 19 45.5-19 19-45v-70q86-14 157-64l52 52q19 19 46 19t46-19 19-46-19-45l-52-53q51-71 65-158h70q26 0 45-19t19-45.5-19-45-45-18.5zM256 576q0-24 3-53t9-62 19.5-55 32.5-22q23 0 43 2.5t40.5 9 32.5 20 12 32.5zM416 256q-13 0-22.5-9.5t-9.5-22.5 9.5-22.5 22.5-9.5h192q13 0 22.5 9.5t9.5 22.5-9.5 22.5-22.5 9.5h-192zM576 448q0-19 12-32.5t32.5-20 40.5-9 43-2.5q19 0 32.5 22t19.5 55 9 62 3 53z" />
<glyph unicode="&#xe633;" d="M960 768h-896q-26 0-45 18.5t-19 45 18.5 45.5 45.5 19h320q0 26 18.5 45t45.5 19h128q27 0 45.5-19t18.5-45h320q26 0 45-19t19-45.5-19-45-45-18.5zM960 64q0-53-37.5-90.5t-90.5-37.5h-640q-53 0-90.5 37.5t-37.5 90.5v640h896v-640zM320 512q0 26-19 45t-45.5 19-45-19-18.5-45v-384q0-27 18.5-45.5t45-18.5 45.5 18.5 19 45.5v384zM576 512q0 26-19 45t-45.5 19-45-19-18.5-45v-384q0-27 18.5-45.5t45-18.5 45.5 18.5 19 45.5v384zM832 512q0 26-19 45t-45.5 19-45-19-18.5-45v-384q0-27 18.5-45.5t45-18.5 45.5 18.5 19 45.5v384z" />
<glyph unicode="&#xe634;" d="M768-64h-512q-53 0-90.5 37.5t-37.5 90.5v768q0 53 37.5 90.5t90.5 37.5h512q53 0 90.5-37.5t37.5-90.5v-768q0-53-37.5-90.5t-90.5-37.5zM512.5 0q26.5 0 45 18.5t18.5 45-18.5 45.5-45 19-45.5-19-19-45.5 19-45 45.5-18.5zM832 832h-640v-640h640v640zM256 256v513h384z" />
<glyph unicode="&#xe635;" d="M960 127h-384v-127h96q13 0 22.5-9.5t9.5-22.5-9.5-22.5-22.5-9.5h-320q-13 0-22.5 9.5t-9.5 22.5 9.5 22.5 22.5 9.5h96v127h-384q-27 0-45.5 19t-18.5 45v704q0 27 18.5 45.5t45.5 18.5h896q27 0 45.5-18.5t18.5-45.5v-704q0-26-18.5-45t-45.5-19zM960 895h-896v-576h896v576zM128 384v448h640z" />
<glyph unicode="&#xe636;" d="M592-64h-160q-144 0-224 31.5t-80 96.5v768q0 65 80 96.5t224 31.5h160q145 0 224.5-31.5t79.5-96.5v-768q0-65-80-96.5t-224-31.5zM832 832h-640v-768h640v768zM256 128v641h384z" />
<glyph unicode="&#xe637;" d="M960-64h-128q-26 0-45 19t-19 45v128q0 26 19 45t45 19h128q26 0 45-19t19-45v-128q0-27-18.5-45.5t-45.5-18.5zM960 320h-128q-26 0-45 18.5t-19 45.5v128q0 27 19 45.5t45 18.5h128q26 0 45-18.5t19-45.5v-128q0-27-18.5-45.5t-45.5-18.5zM960 704h-128q-26 0-45 19t-19 45v128q0 27 19 45.5t45 18.5h128q26 0 45-18.5t19-45.5v-128q0-26-18.5-45t-45.5-19zM576-64h-128q-27 0-45.5 19t-18.5 45v128q0 26 19 45t45 19h128q27 0 45.5-19t18.5-45v-128q0-27-18.5-45.5t-45.5-18.5zM576 320h-128q-27 0-45.5 18.5t-18.5 45.5v128q0 27 19 45.5t45 18.5h128q27 0 45.5-18.5t18.5-45.5v-128q0-27-18.5-45.5t-45.5-18.5zM576 704h-128q-27 0-45.5 19t-18.5 45v128q0 27 19 45.5t45 18.5h128q27 0 45.5-18.5t18.5-45.5v-128q0-26-18.5-45t-45.5-19zM192-64h-128q-26 0-45 19t-19 45v128q0 26 19 45t45 19h128q26 0 45-19t19-45v-128q0-27-18.5-45.5t-45.5-18.5zM192 320h-128q-26 0-45 18.5t-19 45.5v128q0 27 19 45.5t45 18.5h128q26 0 45-18.5t19-45.5v-128q0-27-18.5-45.5t-45.5-18.5zM192 704h-128q-26 0-45 19t-19 45v128q0 27 19 45.5t45 18.5h128q26 0 45-18.5t19-45.5v-128q0-26-18.5-45t-45.5-19z" />
<glyph unicode="&#xe638;" d="M960-64h-512q-27 0-45.5 19t-18.5 45v128q0 26 18.5 45t45.5 19h512q26 0 45-19t19-45v-128q0-27-19-45.5t-45-18.5zM960 320h-512q-27 0-45.5 18.5t-18.5 45.5v128q0 27 18.5 45.5t45.5 18.5h512q26 0 45-18.5t19-45.5v-128q0-27-19-45.5t-45-18.5zM960 704h-512q-27 0-45.5 19t-18.5 45v128q0 27 18.5 45.5t45.5 18.5h512q26 0 45-18.5t19-45.5v-128q0-26-19-45t-45-19zM192-64h-128q-26 0-45 19t-19 45v128q0 26 19 45t45 19h128q26 0 45-19t19-45v-128q0-27-18.5-45.5t-45.5-18.5zM192 320h-128q-26 0-45 18.5t-19 45.5v128q0 27 19 45.5t45 18.5h128q26 0 45-18.5t19-45.5v-128q0-27-18.5-45.5t-45.5-18.5zM192 704h-128q-26 0-45 19t-19 45v128q0 27 19 45.5t45 18.5h128q26 0 45-18.5t19-45.5v-128q0-26-18.5-45t-45.5-19z" />
<glyph unicode="&#xe639;" d="M960-64h-320q-27 0-45.5 18.5t-18.5 45.5v320q0 27 18.5 45.5t45.5 18.5h320q26 0 45-18.5t19-45.5v-320q0-27-19-45.5t-45-18.5zM896 224q0 13-9.5 22.5t-22.5 9.5h-128q-13 0-22.5-9.5t-9.5-22.5v-128q0-13 9.5-22.5t22.5-9.5h128q13 0 22.5 9.5t9.5 22.5v128zM960 512h-320q-27 0-45.5 19t-18.5 45v320q0 27 18.5 45.5t45.5 18.5h320q26 0 45-18.5t19-45.5v-320q0-26-19-45t-45-19zM896 800q0 13-9.5 22.5t-22.5 9.5h-128q-13 0-22.5-9.5t-9.5-22.5v-128q0-13 9.5-22.5t22.5-9.5h128q13 0 22.5 9.5t9.5 22.5v128zM384-64h-320q-26 0-45 18.5t-19 45.5v320q0 27 19 45.5t45 18.5h320q27 0 45.5-18.5t18.5-45.5v-320q0-27-19-45.5t-45-18.5zM320 224q0 13-9.5 22.5t-22.5 9.5h-128q-13 0-22.5-9.5t-9.5-22.5v-128q0-13 9.5-22.5t22.5-9.5h128q13 0 22.5 9.5t9.5 22.5v128zM384 512h-320q-26 0-45 19t-19 45v320q0 27 19 45.5t45 18.5h320q27 0 45.5-18.5t18.5-45.5v-320q0-26-19-45t-45-19zM320 800q0 13-9.5 22.5t-22.5 9.5h-128q-13 0-22.5-9.5t-9.5-22.5v-128q0-13 9.5-22.5t22.5-9.5h128q13 0 22.5 9.5t9.5 22.5v128z" />
<glyph unicode="&#xe63c;" d="M1024 3q0-12-13.5-22t-41.5-16.5-57.5-12-75.5-8.5-80-4.5-87.5-2.5-81-1h-151t-81 1-87.5 2.5-80 4.5-75.5 8.5-57.5 12-41.5 16.5-13.5 22q2 88 110 155.5t274 89.5v33q-52 23-90 65t-60 98.5-32 121-10 139.5q0 64 25 114t69 80.5 101 46 125 15.5 125-15.5 101-46 69-80.5 25-114q0-350-192-426v-31q166-22 274-89.5t110-155.5z" />
<glyph unicode="&#xe63d;" d="M1024 374q0-10-8.5-18t-26-13.5-36-9.5-47-6.5-50-3.5-54.5-2-50.5-1h-175.5v128h-1q-1 46-18 80 27 7 51 10v31q-96 58-96 240 0 75 53.5 113t138.5 38 138.5-38 53.5-113q0-189-96-243v-28q101-14 162-56t62-108zM416 182v-28q101-14 162-56.5t62-107.5q0-10-8.5-18t-26-13.5-36-9.5-47-6.5-50-4-54.5-2-50.5-0.5h-95t-50.5 0.5-54.5 2-50 4-47 6.5-36 9.5-26 13.5-8.5 18q1 65 62 107.5t162 56.5v31q-96 58-96 240 0 75 53.5 113t138.5 38 138.5-38 53.5-113q0-189-96-243z" />
<glyph unicode="&#xe63e;" d="M896 128v-192q-7 4-20 12t-54 44-82 84q-49-12-100-12-73 0-134.5 15t-100.5 37-66.5 49-39 50-11.5 41h96q129 0 229.5 45t159.5 133 59 206q192-97 192-272 0-143-128-240zM832 640zM384 320q-51 0-100 12-41-48-80-83t-58-46l-18-11v192q-128 97-128 240 0 91 51.5 168.5t140 122.5 193 45 193-45 139.5-122.5 51-168.5-52-161-139-106.5-193-36.5zM384 896q-87 0-160.5-34t-116.5-93-43-128.5 43-128.5 116.5-93.5 160.5-34.5 160.5 34.5 116.5 93.5 43 128.5-43 128.5-116.5 93-160.5 34z" />
<glyph unicode="&#xe63f;" d="M976 204q43-63 56.5-124.5t-8.5-102.5-78-41h-842q-56 0-78 41t-8.5 102.5 56.5 124.5l259 328v300h-64q-26 0-45 18.5t-19 45 19 45.5 45 19h512q26 0 45-19t19-45.5-19-45-45-18.5h-64v-300zM589 512v320h-128v-320l-243-312q-32-33-44.5-63.5t3.5-51.5 64-21h568q47 0 63.5 21t4 51.5-45.5 63.5z" />
<glyph unicode="&#xe640;" d="M976 204q43-63 56.5-124.5t-8.5-102.5-78-41h-842q-56 0-78 41t-8.5 102.5 56.5 124.5l259 328v300h-64q-26 0-45 18.5t-19 45 19 45.5 45 19h512q26 0 45-19t19-45.5-19-45-45-18.5h-64v-300zM589 512v320h-128v-320l-149-192h426z" />
<glyph unicode="&#xe641;" d="M960 704h-896q-27 0-45.5 19t-18.5 45.5 18.5 45 45.5 18.5l448 129 448-129q27 0 45.5-18.5t18.5-45-18.5-45.5-45.5-19zM128 128q-27 0-45.5 19t-18.5 45v384q0 27 18.5 45.5t45.5 18.5h128q27 0 45.5-18.5t18.5-45.5v-384q0-26-19-45t-45-19h-128zM448 128q-27 0-45.5 19t-18.5 45v384q0 27 19 45.5t45 18.5h128q27 0 45.5-18.5t18.5-45.5v-384q0-26-18.5-45t-45.5-19h-128zM768 128q-26 0-45 19t-19 45v384q0 27 19 45.5t45 18.5h128q27 0 45.5-18.5t18.5-45.5v-384q0-26-18.5-45t-45.5-19h-128zM64 64h896q27 0 45.5-18.5t18.5-45-18.5-45.5-45.5-19h-896q-27 0-45.5 19t-18.5 45.5 18.5 45 45.5 18.5z" />
</font>
</defs>
</svg>
