<?xml version="1.0" encoding="UTF-8" standalone="no"?>
<!-- Created with Inkscape (http://www.inkscape.org/) -->

<svg
   xmlns:dc="http://purl.org/dc/elements/1.1/"
   xmlns:cc="http://creativecommons.org/ns#"
   xmlns:rdf="http://www.w3.org/1999/02/22-rdf-syntax-ns#"
   xmlns:svg="http://www.w3.org/2000/svg"
   xmlns="http://www.w3.org/2000/svg"
   version="1.1"
   width="116.2859"
   height="131.67429"
   id="svg3663">
  <defs
     id="defs3665" />
  <metadata
     id="metadata3668">
    <rdf:RDF>
      <cc:Work
         rdf:about="">
        <dc:format>image/svg+xml</dc:format>
        <dc:type
           rdf:resource="http://purl.org/dc/dcmitype/StillImage" />
        <dc:title></dc:title>
      </cc:Work>
    </rdf:RDF>
  </metadata>
  <g
     transform="translate(-533.28562,-803.6679)"
     id="layer1">
    <path
       d="m 585.94687,935.29893 c -1.0275,-0.4425 -2.84375,-4.2125 -4.04375,-8.375 l -19.36125,-67.32125 c -1.195,-4.165 -5.44625,-8.9375 -9.445,-10.6075 l -8.74,-3.655 c -4,-1.67 -6.30875,0.37625 -5.13625,4.55 l 13.80125,49.1 c 1.1725,4.1725 1.34875,7.27 0.3975,6.88875 -0.95875,-0.3825 -2.69375,-4.10625 -3.86125,-8.28125 l -15.96875,-57.11625 c -1.16625,-4.1725 1.13,-8.99375 5.10375,-10.72 l 54.39625,-23.58375 c 3.97375,-1.72625 8.01125,-2.8175 8.965,-2.4325 0.95375,0.38875 -1.49875,2.15625 -5.45125,3.93375 l -48.16,21.665 c -3.9525,1.775 -3.84125,2.0525 0.245,0.615 l 55.74125,-19.63125 c 1.71,-0.605 1.98625,-0.17125 0.2475,0.615 l -48.59375,21.8725 c -3.95,1.78 -3.82625,2.0875 0.275,0.69375 l 57.32,-19.51125 c 1.7175,-0.58375 1.935,-0.2325 0.18375,0.495 l -51.08625,21.30375 c -3.99875,1.67 -3.875,2.02625 0.28,0.80125 l 61.94625,-18.28875 c 1.44,-0.425 1.59875,-0.11 0.13625,0.41 l -55.9625,19.9025 c -4.08125,1.4525 -3.99875,1.70625 0.18,0.56625 l 64.2775,-17.53 c 4.1775,-1.1425 9.41625,-1.3375 11.63375,-0.44125 2.2225,0.89375 4.0725,5.17625 4.11375,9.50625 l 0.18875,18.64125 c 0.0475,4.3325 -0.69875,7.01875 -1.65375,5.96875 -0.95875,-1.055 -2.03625,-5.4425 -2.39875,-9.76375 l -1.11,-13.13375 c -0.36375,-4.32 -4.06,-6.84625 -8.22,-5.61875 l -64.79375,19.15875 c -4.155,1.2275 -6.6225,5.65125 -5.48,9.83375 l 19.8275,72.695 c 1.135,4.1825 1.23125,7.24125 0.20625,6.795"
       id="path3076"
       style="fill:#050301;fill-opacity:1;fill-rule:evenodd;stroke:none" />
  </g>
</svg>
