<?xml version="1.0" encoding="UTF-8" standalone="no"?>
<!-- Created with Inkscape (http://www.inkscape.org/) -->

<svg
   xmlns:dc="http://purl.org/dc/elements/1.1/"
   xmlns:cc="http://creativecommons.org/ns#"
   xmlns:rdf="http://www.w3.org/1999/02/22-rdf-syntax-ns#"
   xmlns:svg="http://www.w3.org/2000/svg"
   xmlns="http://www.w3.org/2000/svg"
   xmlns:sodipodi="http://sodipodi.sourceforge.net/DTD/sodipodi-0.dtd"
   xmlns:inkscape="http://www.inkscape.org/namespaces/inkscape"
   id="svg2"
   version="1.1"
   inkscape:version="0.47 r22583"
   width="259.91238"
   height="260.87427"
   sodipodi:docname="direct-action-hase2.gif">
  <title
     id="title2820">Direct Action Rabbit</title>
  <metadata
     id="metadata8">
    <rdf:RDF>
      <cc:Work
         rdf:about="">
        <dc:format>image/svg+xml</dc:format>
        <dc:type
           rdf:resource="http://purl.org/dc/dcmitype/StillImage" />
        <dc:title>Direct Action Rabbit</dc:title>
        <cc:license
           rdf:resource="http://creativecommons.org/licenses/publicdomain/" />
      </cc:Work>
      <cc:License
         rdf:about="http://creativecommons.org/licenses/publicdomain/">
        <cc:permits
           rdf:resource="http://creativecommons.org/ns#Reproduction" />
        <cc:permits
           rdf:resource="http://creativecommons.org/ns#Distribution" />
        <cc:permits
           rdf:resource="http://creativecommons.org/ns#DerivativeWorks" />
      </cc:License>
    </rdf:RDF>
  </metadata>
  <defs
     id="defs6">
    <inkscape:perspective
       sodipodi:type="inkscape:persp3d"
       inkscape:vp_x="0 : 0.5 : 1"
       inkscape:vp_y="0 : 1000 : 0"
       inkscape:vp_z="1 : 0.5 : 1"
       inkscape:persp3d-origin="0.5 : 0.33333333 : 1"
       id="perspective10" />
  </defs>
  <sodipodi:namedview
     pagecolor="#ffffff"
     bordercolor="#666666"
     borderopacity="1"
     objecttolerance="10"
     gridtolerance="10"
     guidetolerance="10"
     inkscape:pageopacity="0"
     inkscape:pageshadow="2"
     inkscape:window-width="1400"
     inkscape:window-height="999"
     id="namedview4"
     showgrid="false"
     inkscape:zoom="1.7039711"
     inkscape:cx="127.76365"
     inkscape:cy="129.26063"
     inkscape:window-x="0"
     inkscape:window-y="0"
     inkscape:window-maximized="1"
     inkscape:current-layer="svg2" />
  <path
     style="fill:#000000"
     d="M 107.60566,259.1848 C 68.819932,250.7068 41.183962,231.62935 19.762742,198.54574 12.569402,187.43611 6.168662,171.11443 2.269162,153.93767 -0.03978796,143.76705 -0.25234796,141.13675 0.18230204,128.11364 1.366182,92.642145 16.355232,60.67713 43.990372,34.690423 74.464592,6.0339928 115.51598,-5.6507616 156.81765,2.5755818 c 23.99289,4.778834 44.11497,14.3637092 59.05468,28.1298912 19.19037,17.682946 29.59233,33.415042 37.53708,56.771722 4.80541,14.127325 6.49829,25.002665 6.50297,41.775975 0.004,15.41501 -1.54922,25.45744 -6.24359,40.36047 -12.00867,38.1234 -42.10992,69.60241 -80.40163,84.08167 -17.36948,6.56793 -48.73234,9.18995 -65.6615,5.48949 z m 21.41275,-27.20231 c 0.47693,-0.75287 0.87405,-4.36068 0.88247,-8.01736 l 0.0153,-6.64851 -7.19228,-0.72229 -7.19228,-0.72229 -3.7419,4.01152 c -4.65327,4.98855 -6.1199,10.82047 -3.26486,12.98243 2.50895,1.89989 19.18573,1.18093 20.49354,-0.8835 z m 27.70341,-4.58064 c 0.63108,-8.69671 -3.59737,-11.55012 -15.7296,-10.61455 -6.77901,0.52276 -8.04397,0.88941 -7.67995,2.22609 0.23969,0.88014 0.73012,3.7639 1.08985,6.40836 0.81949,6.02437 2.18547,6.67099 13.51407,6.39727 l 8.5,-0.20538 0.30563,-4.21179 z m -48.04644,-7.80059 2.2592,-3.48762 -2.57494,0 c -3.66005,0 -6.44345,-1.74309 -6.44345,-4.03518 0,-1.84394 -0.73829,-1.96482 -11.999998,-1.96482 -6.6,0 -12,0.20298 -12,0.45106 0,0.75862 12.99335,7.76781 18.91733,10.20485 7.577428,3.11723 9.167418,2.96037 11.841858,-1.16829 z m 59.34998,0.0511 c 4.06496,-1.90369 8.71725,-4.35601 10.33844,-5.44962 l 2.94761,-1.98838 -2.94761,-1.18354 c -1.62119,-0.65095 -5.24448,-1.3989 -8.05176,-1.66211 -4.51148,-0.42301 -5.16619,-0.24134 -5.63844,1.56457 -0.35679,1.36435 -1.9003,2.41098 -4.64586,3.15028 -2.43482,0.65563 -4.11155,1.70312 -4.11155,2.56858 0,0.8038 0.44143,1.46146 0.98095,1.46146 0.53952,0 1.2633,1.125 1.60841,2.5 0.3451,1.375 0.9653,2.5 1.37822,2.5 0.41291,0 4.07663,-1.55756 8.14159,-3.46124 z m 48.39083,-3.50167 c 1.60463,-0.65981 1.70347,-0.93565 0.5,-1.39535 -11.85898,-4.52988 -13.14691,-4.82349 -15.9909,-3.64547 -2.92975,1.21354 -4.45818,3.46813 -3.45333,5.09401 0.6934,1.12194 16.19218,1.07842 18.94423,-0.0532 z m -17.04506,-13.53705 c 3.94604,-10.20209 5.15653,-12.33711 8.07923,-14.25 4.39484,-2.87639 4.90971,-2.84747 14.06648,0.78998 4.209,1.67199 7.85389,2.83881 8.09977,2.59293 0.56914,-0.56914 -2.11593,-5.51188 -4.43005,-8.15491 -4.20093,-4.79803 -14.85969,-12.478 -17.31778,-12.478 -2.31755,0 -3.00814,1.02101 -6.8748,10.16411 -2.36414,5.59026 -5.1172,12.45276 -6.11791,15.25 -1.00071,2.79724 -2.75106,7.45322 -3.88967,10.34662 -1.13862,2.8934 -2.07021,5.63713 -2.07021,6.09718 0,1.14882 4.34427,3.06985 5.15674,2.2803 0.3612,-0.35102 2.74539,-6.03821 5.2982,-12.63821 z m -42.20494,9.24834 c 5.12978,-1.2165 5.28299,-1.5424 3.78689,-8.05552 -0.52971,-2.30605 -2.13906,-10.26782 -3.57632,-17.69282 -1.43726,-7.425 -3.02886,-13.9275 -3.53689,-14.45 -0.5797,-0.59622 -0.92368,-0.50841 -0.92368,0.23581 0,0.6522 -1.79393,2.37298 -3.9865,3.82396 l -3.98651,2.63814 -5.36316,-2.62396 c -2.94975,-1.44317 -5.79663,-2.62395 -6.32641,-2.62395 -0.52978,0 -2.28493,1.39529 -3.90033,3.10064 -4.1891,4.42236 -6.78843,5.19723 -11.22127,3.34507 -2.02869,-0.84764 -4.70539,-2.49646 -5.94823,-3.66405 -1.24284,-1.16758 -2.46327,-1.91931 -2.71208,-1.6705 -0.24881,0.2488 -1.13296,6.28808 -1.96477,13.42061 -0.83182,7.13253 -1.81234,15.51619 -2.17892,18.63036 l -0.66653,5.66213 5.37736,0.59685 c 14.5327,1.61302 38.95896,1.26432 47.12735,-0.67277 z m -23.25,-29.53256 c -3.47221,-1.19368 -4.03971,-5.58898 -0.93608,-7.24999 1.53199,-0.8199 2.43404,-0.79741 3.5,0.0873 3.01787,2.50461 0.92156,8.36098 -2.56392,7.16273 z m 2,-3.71578 c 0,-0.825 -0.675,-1.5 -1.5,-1.5 -0.825,0 -1.5,0.675 -1.5,1.5 0,0.825 0.675,1.5 1.5,1.5 0.825,0 1.5,-0.675 1.5,-1.5 z m 50.50555,30.49387 c 2.19659,-2.42721 1.81516,-2.86543 -4.81335,-5.52998 -2.85571,-1.14794 -5.07569,-2.50943 -4.9333,-3.02553 2.13699,-7.74517 4.75359,-14.43836 5.64446,-14.43836 0.61868,0 3.57534,0.89568 6.57036,1.9904 2.99502,1.09471 5.76039,1.65721 6.14526,1.25 1.46667,-1.55183 7.14357,-16.31118 6.51539,-16.93936 -0.98592,-0.98592 -7.01469,2.15823 -17.63437,9.19676 -8.53124,5.65436 -10.18732,6.36968 -16.24008,7.01475 -6.66536,0.71036 -6.73265,0.74752 -6.06973,3.35288 0.36869,1.44902 1.17013,5.10957 1.78098,8.13457 l 1.11064,5.5 4.4591,0.0609 c 2.79555,0.0382 6.32442,1.04677 9.45909,2.70344 6.08675,3.21684 5.77983,3.18888 8.00555,0.72949 z m 15.26528,-1.80637 c 0.59996,-1.79986 -1.467,-1.42165 -2.16452,0.39606 -0.37373,0.97391 -0.15024,1.43108 0.58051,1.1875 0.6535,-0.21783 1.3663,-0.93044 1.58401,-1.58356 z m -99.33876,-3.4375 c 0.2586,-1.2375 0.63339,-5.0625 0.83287,-8.5 l 0.36268,-6.25 -19.063808,0.0327 c -20.97923,0.036 -32.39821,1.09957 -33.69044,3.13794 -1.28098,2.02062 -1.03502,9.23929 0.37663,11.05385 1.86422,2.3963 3.3086,2.53358 27.98095,2.65949 l 22.730948,0.11602 0.47017,-2.25 z m -46.278638,-1.5 c -3.2396,-2.74125 -3.72993,-6.6735 -1.15343,-9.25 2.4087,-2.4087 6.08736,-2.11723 9.25,0.7329 2.00164,1.80385 2.33401,7.28309 0.55,9.0671 -1.75279,1.75279 -6.26428,1.46582 -8.64657,-0.55 z m 6.73192,-1.15798 c 2.23819,-1.41747 0.54632,-5.94557 -2.50791,-6.71214 -4.39071,-1.102 -6.32871,4.90025 -2.12744,6.58896 2.89092,1.16201 2.99084,1.16466 4.63535,0.12318 z m 127.773518,-0.76648 c -0.62845,-0.62845 -6.65887,0.91642 -6.65887,1.70586 0,0.42977 1.57462,0.29814 3.49915,-0.29252 1.92453,-0.59066 3.3464,-1.22666 3.15972,-1.41334 z m -4.15887,-1.32554 c 2,-0.85943 2,-0.85943 0,-0.9144 -1.1,-0.0302 -2.675,0.38124 -3.5,0.9144 -1.33333,0.86167 -1.33333,0.96327 0,0.9144 0.825,-0.0302 2.4,-0.44171 3.5,-0.9144 z m 4.6875,-1.68311 c -0.72188,-0.28887 -1.58438,-0.25335 -1.91667,0.0789 -0.33229,0.33229 0.25834,0.56864 1.3125,0.52522 1.16495,-0.048 1.4019,-0.28494 0.60417,-0.60416 z m -2.26379,-1.48864 c 2.79196,-0.64446 5.07629,-1.5926 5.07629,-2.10699 0,-0.51438 -0.57405,-0.71495 -1.27567,-0.44572 -0.70162,0.26924 -3.85162,1.02429 -7,1.67789 -3.14838,0.6536 -5.72433,1.38146 -5.72433,1.61747 0,0.76609 3.73356,0.45538 8.92371,-0.74265 z m -0.007,-5.47189 c 0.22912,-0.196 -1.23338,-0.35636 -3.25004,-0.35636 -2.01667,0 -3.66667,0.43875 -3.66667,0.975 0,0.86141 5.79185,0.34337 6.91667,-0.61864 z m -111.174748,-4.74555 18.49669,-1.11081 -4.65724,-3.33936 c -10.31843,-7.3986 -18.7754,-20.7793 -22.61058,-35.77469 -5.97749,-23.37178 2.52158,-49.890515 20.92882,-65.301925 l 4.81996,-4.0355 -1.3598,-5.24219 c -0.7479,-2.88321 -1.35981,-9.869121 -1.35981,-15.52426 0,-5.65514 -0.38246,-10.282072 -0.84992,-10.282072 -1.80948,0 -19.41196,11.762487 -25.06219,16.747292 -7.07222,6.23931 -16.99873,19.26858 -21.10362,27.70002 -1.62072,3.32898 -4.37738,11.452685 -6.1259,18.052685 -2.77424,10.47169 -3.18435,13.65567 -3.2201,25 -0.0326,10.35652 0.41403,14.72843 2.19658,21.5 2.44793,9.29924 8.32553,22.46586 13.17573,29.51537 2.67701,3.89091 3.43994,4.40966 5.6642,3.85141 1.41377,-0.35484 10.894,-1.14502 21.06718,-1.75597 z m 82.996358,-5.11179 c -1.48289,-4.83168 -2.75967,-4.42094 -1.5139,0.48701 0.55647,2.19232 1.36637,3.76688 1.79977,3.49902 0.4334,-0.26786 0.30476,-2.06157 -0.28587,-3.98603 z m 22.38229,-1.57187 c 5.52942,-3.34007 12.07663,-6.94007 14.54935,-8 5.51219,-2.3628 12.54764,-2.4859 15.91657,-0.2785 3.10638,2.03538 3.49147,1.62574 6.72034,-7.14865 3.97432,-10.80012 4.82009,-14.97121 5.56485,-27.44432 1.82887,-30.62935 -6.326,-52.302745 -27.59991,-73.352945 -10.23853,-10.130856 -17.81011,-15.471214 -27.91765,-19.690752 -6.96751,-2.908689 -18.38528,-6.31419 -19.02501,-5.67446 -0.17577,0.175763 0.63578,4.097498 1.80344,8.714966 1.59509,6.307706 1.98801,10.142572 1.58008,15.421456 l -0.54295,7.02606 6.69039,3.20082 c 12.84381,6.14476 25.25605,19.75454 30.08588,32.988575 6.87366,18.83427 6.09824,38.00726 -2.22776,55.08339 -3.61207,7.40816 -14.39005,20.48902 -18.73191,22.73429 -3.77188,1.95051 -3.76161,2.49292 0.0472,2.49292 1.9414,0 6.65307,-2.18638 13.08706,-6.07285 z m -77.12061,2.95482 c 0,-0.55 -0.45,-0.72189 -1,-0.38197 -0.55,0.33992 -1,1.06803 -1,1.61803 0,0.55 0.45,0.72189 1,0.38197 0.55,-0.33992 1,-1.06803 1,-1.61803 z m 20.25,-6.27402 c 2.88447,-2.18962 2.07348,-2.60902 -5,-2.58571 l -6.75,0.0222 2.5,1.95556 c 2.8915,2.26177 6.73831,2.5146 9.25,0.60795 z m 22,-3 c 2.53848,-1.92698 2.14922,-2.73052 -1,-2.06426 -1.5125,0.31999 -3.85153,0.80948 -5.19785,1.08776 -1.93514,0.39999 -2.14459,0.69782 -1,1.42195 2.05294,1.29878 5.15283,1.10695 7.19785,-0.44545 z m 0.0587,-5.01881 c 10.5461,-2.60721 19.18854,-9.76953 24.32216,-20.1567 4.38317,-8.86874 5.1008,-14.58693 2.97325,-23.69137 -3.61003,-15.44841 -13.47668,-28.611855 -26.33428,-35.133515 l -3.23019,-1.63842 1.92745,-5.23457 c 3.81808,-10.36913 5.35917,-21.17572 4.16489,-29.205511 -1.23287,-8.289234 -6.41826,-23.44182 -9.16781,-26.789915 -2.40764,-2.931742 -4.36405,-1.765655 -8.07513,4.813045 -6.60115,11.702005 -7.38685,24.148971 -3.31716,52.549981 l 0.65946,4.60216 -4.7373,1.19287 c -2.60551,0.65607 -4.9733,0.95686 -5.26175,0.66841 -0.57959,-0.57959 -1.51397,-5.93645 -3.70726,-21.25409 -2.24989,-15.712867 -6.9867,-25.607652 -16.83907,-35.175381 l -4.493688,-4.363869 -1.29304,2.363869 c -1.78663,3.266224 -2.52805,32.309451 -0.98158,38.451031 0.63605,2.52597 3.40115,9.56774 6.144678,15.6484 4.24056,9.39863 4.79708,11.31643 3.71296,12.79502 -0.7014,0.95661 -3.42858,4.682865 -6.060398,8.280575 -17.1099,23.38928 -11.78623,57.16238 9.874418,62.64277 5.32144,1.34638 32.53517,0.4113 39.71939,-1.36479 z m -18.96367,-7.41788 c 2.05187,-2.26731 2.09605,-3.17126 0.15497,-3.17126 -0.825,0 -1.5,-0.50888 -1.5,-1.13084 0,-0.74165 1.24944,-0.92809 3.63034,-0.54172 2.34445,0.38045 4.6797,0.0465 6.59293,-0.9429 1.62942,-0.84261 3.25827,-1.21222 3.61966,-0.82137 0.36139,0.39085 0.0946,0.91153 -0.59293,1.15707 -1.94584,0.69494 -1.47457,1.98777 0.95633,2.62347 3.39101,0.88677 1.19015,2.1096 -3.22335,1.79093 -2.37506,-0.17148 -4.82192,0.33957 -6.1799,1.29074 -1.23645,0.86604 -2.89271,1.57462 -3.68057,1.57462 -1.1622,0 -1.12021,-0.34506 0.2225,-1.82874 z m -24.94687,-18.57606 c -0.84807,-2.21003 -0.0154,-7.90277 1.21491,-8.30588 1.88231,-0.61675 3.7374,5.1873 2.43549,7.61995 -1.29196,2.41404 -2.87324,2.71117 -3.6504,0.68593 z m 51.67681,-8.54886 c -1.70288,-1.05244 -1.86639,-6.65492 -0.24164,-8.27967 1.70982,-1.70982 3.5,0.45545 3.5,4.23333 0,3.65235 -1.29459,5.26001 -3.25836,4.04634 z M 124.66619,64.483355 c 1.99026,-0.53337 2.25378,-1.25329 2.28272,-6.236343 0.0336,-5.780468 1.38263,-17.033263 2.47957,-20.68259 0.6026,-2.004757 0.41386,-2.030402 -8.69816,-1.181913 -10.24998,0.954452 -11.97921,1.756226 -9.61373,4.457505 2.24014,2.558139 5.30469,9.988732 6.72611,16.308711 2.00035,8.89412 1.80158,8.68045 6.82349,7.33463 z"
     id="path2818" />
</svg>
